<?xml version="1.0" encoding="utf-8"?>
<!-- Generator: Adobe Illustrator 26.4.1, SVG Export Plug-In . SVG Version: 6.00 Build 0)  -->
<svg version="1.1" xmlns="http://www.w3.org/2000/svg" xmlns:xlink="http://www.w3.org/1999/xlink" x="0px" y="0px"
	 viewBox="0 0 1491.4 584" style="enable-background:new 0 0 1491.4 584;" xml:space="preserve">
<style type="text/css">
	.st0{display:none;}
	.st1{display:inline;fill:#560F0F;stroke:#000000;stroke-miterlimit:10;}
	.st2{opacity:0.37;}
	.st3{opacity:0.67;clip-path:url(#SVGID_00000057854717152969217530000003565859231249142707_);}
	.st4{fill:none;stroke:#FFFFFF;stroke-miterlimit:10;}
</style>
<g id="Layer_2" class="st0">
	<rect class="st1" width="1492.2" height="584"/>
</g>
<g id="Layer_1">
	<g id="OBJECTS" transform="translate(1956 346)" class="st2">
		<g id="Group_340" transform="translate(-1956 -346)">
			<g>
				<defs>
					<rect id="SVGID_1_" y="-618" width="1488" height="1202"/>
				</defs>
				<clipPath id="SVGID_00000143596791087379378310000013143661034876216993_">
					<use xlink:href="#SVGID_1_"  style="overflow:visible;"/>
				</clipPath>
				
					<g id="Group_339" transform="translate(0 0)" style="opacity:0.67;clip-path:url(#SVGID_00000143596791087379378310000013143661034876216993_);">
					<g id="Group_338" transform="translate(-92.256 560.035)">
						<g id="Group_336">
							<path id="Path_370" class="st4" d="M129.8-211.1c115.5-72.4,258.5-50.5,380.1,7.9S739.8-52.9,857.1,17.3
								s251.6,118.8,378.5,82c106.3-30.8,194.6-118.1,266.8-215.7c72-97.6,131.7-207.8,205.1-304c42.3-55.3,101.6-109.9,162.3-89"/>
							<path id="Path_371" class="st4" d="M1872.3-512.2c-47.8-18.3-96,9.9-135.5,49.1c-10.2,10.1-19.9,20.7-29,31.7
								c-25.2,30.5-49,63.2-72.2,96.4c-46.6,67.1-90.7,137.1-140.1,201.8c-42.7,56-90.5,108.7-144,149.3
								c-38.9,29.6-80.9,52.7-126.2,65.9c-89.1,26-181.9,11.3-269.6-26C917.6,39.9,880.5,19.5,845-2.6c-50.8-31.5-100-66.8-150-99.8
								c-62.3-40.9-124.8-77.9-189.9-105.3c-3.4-1.4-6.9-2.9-10.3-4.3c-121.6-48.8-261.5-60.6-372.8,17.6"/>
							<path id="Path_372" class="st4" d="M1874.5-515.3c-47.6-19.7-96.2,5.5-136.9,42.6c-10.5,9.6-20.6,20-30,30.3
								c-26.2,29.3-50.8,61.1-74.8,93.5c-48.4,65.6-93.8,134.7-144.4,198.9c-43.6,55.5-92.3,108.2-146.2,148.8
								c-39.3,29.6-81.7,52.9-127.2,66.1c-89.9,26.5-183.7,12.7-271.4-26c-38.3-16.8-75.2-38-110.7-61.1
								c-50.8-32.9-100-69-150.8-101c-63.3-39.7-126.8-71.7-191.9-94.3c-3.4-1.2-6.9-2.4-10.3-3.6
								c-121.6-39.2-258.5-40.9-365.5,42.8"/>
							<path id="Path_373" class="st4" d="M1876.7-518.4c-47.2-21.4-96.6,1.2-138.3,36.1c-10.9,9-21.2,18.6-30.9,28.9
								c-27.2,28.1-52.8,58.9-77.6,90.7c-50,64-97.2,132.3-148.8,196c-44.6,55.1-93.8,107.5-148.4,148.1
								c-39.7,29.6-82.5,52.9-128.2,66.4c-90.7,26.9-185.3,14.2-273.2-25.7c-38.3-17.3-75-39.7-110.5-63.5
								c-50.6-34.1-100-71.2-151.6-102c-64.3-38.2-128.8-65.6-194-83c-3.4-1-6.9-1.9-10.3-2.6c-121.6-30.3-255.5-21.9-357.9,67.6"/>
							<path id="Path_374" class="st4" d="M1878.8-521.6c-47-22.8-97-2.9-139.7,29.3c-11.1,8.4-21.8,17.8-31.9,27.2
								c-28,26.7-54.6,56.8-80.2,87.8c-51.8,62.5-100.2,130.1-153,193.3c-45.6,54.8-95.4,106.8-150.8,147.6
								C1283.3-6.7,1240,16.6,1194,30.6C1102.5,58,1007.1,46.2,919,4.8c-38.3-18-75-41.4-110.3-65.9
								c-50.6-35.3-100-73.3-152.6-103.2c-61-34.6-127.3-58.8-196.2-71.7c-3.4-0.7-6.9-1.2-10.3-1.9c-121.2-20.9-252-2.2-350.4,92.6
								"/>
							<path id="Path_375" class="st4" d="M1881-524.7c-46.6-24.5-97.4-7.2-141.1,22.8c-11.4,8-22.4,16.5-32.9,25.7
								c-29,25.5-56.3,54.6-82.9,84.9c-53.4,61.1-103.4,127.7-157.3,190.4c-46.6,54.3-97.2,106.3-153,146.9
								c-40.3,29.6-84.1,52.9-130.3,67.1c-92.3,27.9-188.5,17.1-277-25.7C868-31,831.7-55.3,796.4-80.8
								c-50.6-36.6-100-75.5-153.4-104.1c-66.3-35.6-132.9-53.1-198.2-60.6c-3.4-0.5-6.9-0.7-10.3-1
								C313.3-258,185.7-229.2,91.7-128.6"/>
							<path id="Path_376" class="st4" d="M1883.2-527.8c-46.4-26-97.6-11.5-142.5,16.4c-11.7,7.5-23,15.6-33.9,24.3
								c-30,24-58.3,52.4-85.5,82c-55.2,59.6-106.5,125.5-161.7,187.8c-47.6,53.9-98.8,105.6-155.1,146.2
								c-40.7,29.6-84.7,53.1-131.3,67.3c-92.9,28.4-190.3,18.5-278.8-25.7c-38.5-19.2-74.8-44.5-110.1-70.9
								c-50.6-37.7-100-77.7-154.2-105.3C562.9-240,495-253,429.7-255.1c-3.4-0.2-6.9-0.2-10.3-0.2
								c-121.2-2.2-245.8,36.8-335.5,143.1"/>
							<path id="Path_377" class="st4" d="M1885.6-530.9c-46-27.7-98-15.9-143.8,9.9c-12.1,6.8-23.8,14.3-34.9,22.6
								c-30.8,22.8-60.1,50.3-88.3,79.1c-56.9,58.2-109.7,123.1-165.9,184.9c-48.6,53.4-100.6,104.8-157.5,145.7
								c-41.1,29.3-85.5,53.1-132.5,67.6C1069,7.7,970.8-1.2,882.1-46.9c-38.5-19.7-74.8-46.2-109.9-73.3
								c-50.4-39-100-79.8-155-106.3c-68.2-32.7-137.1-40.9-202.4-38.2c-3.4,0.2-6.9,0.2-10.3,0.5
								c-121.2,7.5-242.8,56.5-328.2,168.3"/>
							<path id="Path_378" class="st4" d="M1887.8-534.1c-45.8-29.1-98.4-20.2-145.2,3.4c-12.3,6.3-24.3,13.4-35.7,21.2
								c-31.7,21.6-61.9,48.1-90.9,76.2c-58.5,56.8-112.9,121-170.2,182c-49.6,53.1-102.2,104.4-159.7,145
								c-41.7,29.6-86.7,53.4-133.9,68.1C1057.7-8.9,958.7-16.8,869.8-64c-38.7-20.4-74.6-47.6-109.7-75.7
								c-50.4-40.4-100-82-155.9-107.2c-69.2-31.3-139.3-34.6-204.5-26.9c-3.4,0.5-6.9,1-10.3,1.4c-121,16.4-239.5,75.5-320.4,193.1
								"/>
							<path id="Path_379" class="st4" d="M1890-537.2c-45.4-30.8-98.8-24.5-146.6-3.1c-12.7,5.7-24.9,12.3-36.7,19.7
								c-32.7,20.2-63.7,45.9-93.6,73.3c-60.3,55.3-116.1,118.6-174.6,179.4c-50.6,52.7-103.8,103.6-161.9,144.5
								c-41.9,29.3-87.1,53.1-134.5,68.1C1046.8-25.5,947-32.4,857.7-81c-38.7-21.2-74.6-49.3-109.7-78.2
								c-50.4-41.6-100-84.2-156.7-108.5C521-297.7,450-296.2,384.5-283.5c-3.4,0.7-6.9,1.4-10.3,2.2
								c-121,26-236.3,95.2-313.1,218.3"/>
							<path id="Path_380" class="st4" d="M1892.1-540.3c-45.2-32.2-99.2-28.9-148-9.6c-13,5.2-25.5,11.2-37.7,18
								c-33.5,19-65.7,43.8-96.2,70.5c-61.9,53.9-119.2,116.4-178.8,176.5c-51.6,52.2-105.5,102.9-164.3,143.8
								c-42.1,29.3-87.9,53.4-135.7,68.5c-96,30.3-196.6,24.3-286.1-25.7c-38.7-21.6-74.4-51-109.5-80.6
								c-50.4-42.8-100-86.3-157.5-109.4c-71.2-28.6-143.4-22.4-208.7-4.6c-3.6,1-6.9,1.9-10.3,2.9C238.3-254.6,126-175.3,53.6-46.4
								"/>
							<path id="Path_381" class="st4" d="M1894.3-543.4c-44.8-33.7-99.6-33.4-149.4-16.1c-13.3,4.6-26.2,10.1-38.7,16.6
								c-34.5,17.8-67.5,41.6-99,67.6c-63.7,52.4-122.4,114-183.1,173.6c-52.6,51.7-107.1,102.4-166.5,143.3
								c-42.5,29.3-88.7,53.4-136.7,68.8c-96.6,30.8-198.4,26-287.9-25.5c-38.9-22.4-74.4-52.7-109.3-83.2
								c-50.4-44-100-88.5-158.3-110.6c-72.2-27.2-145.4-16.4-210.9,6.5c-3.6,1.2-6.9,2.4-10.3,3.8C223.2-253.9,114.1-164.5,45.8-30
								"/>
							<path id="Path_382" class="st4" d="M1896.5-546.6c-44.6-35.3-100-37.8-150.8-22.6c-13.6,4.1-26.8,9.2-39.7,15.1
								c-35.3,16.6-69.2,39.4-101.6,64.7c-65.5,51-125.6,111.6-187.5,171c-53.6,51.2-108.9,101.7-168.6,142.6
								c-42.9,29.3-89.3,53.4-137.7,69c-97.4,31.3-200,27.4-289.9-25.5c-38.9-22.8-74.4-54.1-109.3-85.6
								c-50.2-45.2-100-90.7-159.1-111.6c-73-26-147.4-10.1-212.9,17.8c-3.6,1.4-6.9,2.9-10.3,4.6
								c-120.8,53.9-227,153.4-290.9,293.4"/>
							<path id="Path_383" class="st4" d="M1898.7-549.7c-44.2-36.8-100.4-42.1-152.2-29.1c-13.9,3.4-27.5,7.9-40.7,13.5
								c-36.3,15.1-71,37.3-104.4,61.8c-67.1,49.5-128.8,109.4-191.9,168.1c-54.6,51-110.5,101-171,142.1
								c-43.3,29.3-90.1,53.6-138.9,69.3c-98.2,31.7-201.6,28.9-291.6-25.5c-38.9-23.6-74.2-55.8-109.1-88
								c-50.2-46.4-100-92.8-160.1-112.8c-74-24.5-149.6-3.8-215.1,28.9c-3.6,1.7-6.9,3.6-10.3,5.3C193.2-252.5,90.3-142.8,30.8,2.9
								"/>
							<path id="Path_384" class="st4" d="M1900.9-552.8c-44-38.5-100.8-46.4-153.6-35.6c-14.2,3-28.1,7-41.7,12
								c-37.1,13.9-73,35.1-106.9,58.7c-68.8,48.1-131.9,107-196,165.2c-55.6,50.5-112.1,100.5-173.2,141.4
								c-43.4,29.3-90.9,53.6-139.9,69.5c-99,32.2-203.2,30.3-293.4-25.5c-39.1-24-74.2-57.5-108.9-90.4
								c-50.2-47.6-100-95-160.9-113.7c-75-23.1-151.6,2.2-217.2,40.2c-3.6,1.9-6.9,4.1-10.3,6.3C178.2-251.8,78.4-132,23,19.2"/>
							<path id="Path_385" class="st4" d="M1903.1-555.9c-43.6-39.9-101.2-50.7-155-42.1c-14.4,2.3-28.6,5.9-42.5,10.6
								c-38.1,12.7-74.8,32.7-109.7,55.8c-70.4,46.7-135.1,104.8-200.4,162.6c-56.5,50-113.9,99.8-175.4,140.9
								c-43.8,29.3-91.7,53.6-140.9,69.7c-99.8,32.7-204.9,31.7-295.2-25.5c-39.1-24.8-74-58.9-108.7-92.8
								c-50.2-49.1-100-97.1-161.7-114.9c-76-21.9-153.8,8.4-219.2,51.2c-3.6,2.2-6.9,4.6-10.3,7C163.3-251,66.5-121.2,15.5,35.8"/>
							<path id="Path_386" class="st4" d="M1905.4-559.1c-43.4-41.6-101.4-55.1-156.3-48.6c-14.7,1.8-29.2,4.7-43.4,8.9
								c-39.1,11.3-76.6,30.5-112.5,52.9c-72.2,45-138.3,102.4-204.7,159.7c-57.5,49.5-115.5,99.1-177.8,140.2
								c-44.2,29.1-92.5,53.6-142.1,70.2C968-142.6,862-142.6,771.4-201.3c-39.1-25.2-74-60.6-108.7-95.2
								c-50-50.3-100-99.3-162.5-115.9c-77-20.4-155.7,14.4-221.4,62.5c-3.6,2.6-6.9,5-10.3,7.7C148.2-250.3,54.6-110.4,7.7,52.2"/>
							<path id="Path_387" class="st4" d="M1907.6-562.2c-43.1-43-101.8-59.6-157.7-55.1c-55.9,4.3-109.5,27.9-159.5,57.5
								c-138.1,81.5-254,208-389.1,296.5c-135.1,88.3-306.5,134.7-442,45c-96-63.5-164.7-188.5-272-214.7
								c-78-19-157.9,20.7-223.6,73.6C138.3-258.2,43.6-104.6,0,68.5"/>
						</g>
					</g>
				</g>
			</g>
		</g>
	</g>
</g>
</svg>
