<svg xmlns="http://www.w3.org/2000/svg" width="152.156" height="48" viewBox="0 0 152.156 48">
  <g id="Group_345" data-name="Group 345" transform="translate(-454.844 -2307)">
    <path id="Icon_awesome-google-play" data-name="Icon awesome-google-play" d="M22.873,16.474,7.355.914,27.1,12.248l-4.226,4.226ZM3.3,0A2.733,2.733,0,0,0,1.779,2.482V33.511A2.733,2.733,0,0,0,3.3,35.993l18.042-18ZM33.2,15.863l-4.141-2.4L24.441,18l4.62,4.535,4.226-2.4a2.821,2.821,0,0,0-.084-4.275ZM7.355,35.086,27.1,23.752l-4.226-4.226Z" transform="translate(453.065 2314.003)" fill="#fff"/>
    <text id="Download_For" data-name="Download For" transform="translate(503 2322)" fill="#fff" font-size="16" font-family="Raleway-Regular, Raleway"><tspan x="0" y="0">Download For</tspan></text>
    <text id="Android" transform="translate(503 2349)" fill="#fff" font-size="26" font-family="Raleway-SemiBold, Raleway" font-weight="600" letter-spacing="0.03em"><tspan x="0" y="0">Android</tspan></text>
  </g>
</svg>
