<svg xmlns="http://www.w3.org/2000/svg" width="170" height="50" viewBox="0 0 170 50">
  <g id="App_Store__iOS_-Badge-Logo.wine" data-name="App_Store_(iOS)-Badge-Logo.wine" transform="translate(0 -0.126)">
    <path id="Path_425" data-name="Path 425" d="M163.7,50H6.3A6.292,6.292,0,0,1,0,43.75V6.25A6.292,6.292,0,0,1,6.3,0H163.7A6.292,6.292,0,0,1,170,6.25v37.5A6.292,6.292,0,0,1,163.7,50" transform="translate(0 0.126)"/>
    <path id="Path_426" data-name="Path 426" d="M163.7,0H6.3A6.292,6.292,0,0,0,0,6.25v37.5A6.292,6.292,0,0,0,6.3,50H163.7a6.292,6.292,0,0,0,6.3-6.25V6.25A6.292,6.292,0,0,0,163.7,0m0,1a5.276,5.276,0,0,1,5.289,5.25v37.5A5.276,5.276,0,0,1,163.7,49H6.3A5.276,5.276,0,0,1,1.007,43.75V6.25A5.276,5.276,0,0,1,6.3,1H163.7" transform="translate(0 0.126)" fill="#a6a6a6"/>
    <path id="Path_403" data-name="Path 403" d="M28.562,23.342a6.217,6.217,0,0,1,2.96-5.216,6.364,6.364,0,0,0-5.014-2.711c-2.11-.221-4.155,1.262-5.23,1.262-1.1,0-2.751-1.24-4.533-1.2A6.678,6.678,0,0,0,11.125,18.9c-2.43,4.207-.617,10.389,1.71,13.789,1.164,1.665,2.525,3.525,4.306,3.459,1.743-.072,2.393-1.111,4.5-1.111,2.084,0,2.695,1.111,4.511,1.069,1.87-.03,3.048-1.672,4.172-3.353a13.772,13.772,0,0,0,1.908-3.885,6.008,6.008,0,0,1-3.667-5.527ZM25.13,13.178a6.121,6.121,0,0,0,1.4-4.385,6.228,6.228,0,0,0-4.03,2.085A5.825,5.825,0,0,0,21.063,15.1a5.15,5.15,0,0,0,4.066-1.923ZM50.589,31.934H44.642L43.214,36.15H40.7l5.633-15.6h2.617l5.633,15.6H52.016Zm-5.331-1.946h4.714l-2.324-6.843h-.065Zm21.484.476c0,3.535-1.892,5.805-4.747,5.805a3.856,3.856,0,0,1-3.579-1.99h-.054v5.634H56.028V24.776h2.26v1.892h.043a4.035,4.035,0,0,1,3.622-2.011c2.887,0,4.79,2.282,4.79,5.807Zm-2.4,0c0-2.3-1.19-3.817-3.006-3.817-1.784,0-2.984,1.546-2.984,3.817,0,2.292,1.2,3.827,2.984,3.827,1.816,0,3.006-1.5,3.006-3.827Zm14.919,0c0,3.535-1.892,5.805-4.747,5.805a3.856,3.856,0,0,1-3.579-1.99h-.054v5.634H68.547V24.776h2.26v1.892h.043a4.035,4.035,0,0,1,3.622-2.011c2.887,0,4.79,2.282,4.79,5.807Zm-2.4,0c0-2.3-1.19-3.817-3.006-3.817-1.784,0-2.984,1.546-2.984,3.817,0,2.292,1.2,3.827,2.984,3.827,1.816,0,3.006-1.5,3.006-3.827ZM87.535,31.8c.173,1.547,1.676,2.563,3.73,2.563,1.968,0,3.384-1.016,3.384-2.411,0-1.211-.854-1.936-2.876-2.433l-2.022-.487c-2.865-.692-4.195-2.032-4.195-4.206,0-2.692,2.346-4.541,5.677-4.541,3.3,0,5.557,1.849,5.633,4.541H94.508c-.141-1.557-1.428-2.5-3.309-2.5s-3.168.951-3.168,2.335c0,1.1.822,1.752,2.833,2.249l1.719.422c3.2.757,4.531,2.043,4.531,4.325,0,2.919-2.325,4.747-6.023,4.747-3.46,0-5.8-1.785-5.947-4.607Zm14.618-9.719v2.692h2.163v1.849h-2.163V32.9c0,.974.433,1.428,1.384,1.428a7.3,7.3,0,0,0,.768-.054v1.838a6.412,6.412,0,0,1-1.3.108c-2.3,0-3.2-.865-3.2-3.071V26.625H98.153V24.776h1.654V22.084Zm3.416,8.379c0-3.579,2.108-5.828,5.395-5.828s5.4,2.249,5.4,5.828-2.087,5.828-5.4,5.828S105.569,34.052,105.569,30.464Zm8.411,0c0-2.455-1.125-3.9-3.017-3.9s-3.016,1.46-3.016,3.9c0,2.465,1.124,3.9,3.016,3.9S113.98,32.929,113.98,30.464Zm4.3-5.688h2.227v1.936h.054a2.713,2.713,0,0,1,2.736-2.055,3.6,3.6,0,0,1,.8.087v2.184a3.264,3.264,0,0,0-1.049-.141,2.353,2.353,0,0,0-2.433,2.617V36.15h-2.335Zm16.581,8.033c-.314,2.065-2.325,3.482-4.9,3.482-3.309,0-5.363-2.217-5.363-5.774s2.065-5.882,5.264-5.882c3.147,0,5.126,2.162,5.126,5.61v.8h-8.033v.141a2.962,2.962,0,0,0,3.06,3.222,2.573,2.573,0,0,0,2.627-1.6Zm-7.892-3.395h5.686a2.735,2.735,0,0,0-2.79-2.887,2.879,2.879,0,0,0-2.9,2.887ZM44.966,8.806a3.316,3.316,0,0,1,3.527,3.725c0,2.395-1.294,3.771-3.527,3.771H42.258v-7.5Zm-1.543,6.436h1.413a2.357,2.357,0,0,0,2.472-2.7,2.363,2.363,0,0,0-2.472-2.681H43.422Zm6.386-1.771a2.68,2.68,0,1,1,5.336,0,2.68,2.68,0,1,1-5.336,0Zm4.187,0c0-1.226-.551-1.943-1.518-1.943s-1.516.717-1.516,1.943.546,1.948,1.516,1.948S54,14.7,54,13.472ZM62.236,16.3H61.078l-1.169-4.166H59.82L58.656,16.3H57.509L55.95,10.645h1.132L58.1,14.962h.083l1.163-4.317h1.071l1.163,4.317h.088l1.008-4.317h1.116ZM65.1,10.646h1.075v.9h.083a1.694,1.694,0,0,1,1.688-1.008,1.84,1.84,0,0,1,1.958,2.1V16.3H68.789V12.921c0-.909-.4-1.361-1.221-1.361a1.3,1.3,0,0,0-1.351,1.434V16.3H65.1Zm6.583-2.208H72.8V16.3H71.684Zm2.668,5.035a2.68,2.68,0,1,1,5.336,0,2.681,2.681,0,1,1-5.336,0Zm4.187,0c0-1.226-.551-1.943-1.518-1.943s-1.516.717-1.516,1.943.546,1.948,1.516,1.948S78.54,14.7,78.54,13.472ZM80.864,14.7c0-1.018.758-1.605,2.1-1.689l1.532-.088v-.488c0-.6-.395-.935-1.158-.935-.623,0-1.055.229-1.179.629H81.083c.114-.972,1.028-1.595,2.311-1.595,1.418,0,2.218.706,2.218,1.9V16.3H84.538v-.795h-.088a1.9,1.9,0,0,1-1.7.888A1.709,1.709,0,0,1,80.864,14.7Zm3.636-.483v-.473l-1.381.088c-.779.052-1.132.317-1.132.816s.442.806,1.049.806A1.334,1.334,0,0,0,84.5,14.219Zm2.579-.748c0-1.788.919-2.92,2.348-2.92a1.864,1.864,0,0,1,1.735.992h.083V8.437h1.116V16.3h-1.07v-.894H91.2a1.963,1.963,0,0,1-1.776.987c-1.439,0-2.348-1.132-2.348-2.924Zm1.153,0c0,1.2.566,1.922,1.511,1.922s1.523-.732,1.523-1.917-.588-1.922-1.523-1.922S88.233,12.282,88.233,13.472Zm8.749,0a2.68,2.68,0,1,1,5.336,0,2.68,2.68,0,1,1-5.336,0Zm4.187,0c0-1.226-.551-1.943-1.518-1.943s-1.516.717-1.516,1.943.546,1.948,1.516,1.948S101.169,14.7,101.169,13.472Zm2.646-2.826h1.075v.9h.083a1.694,1.694,0,0,1,1.688-1.008,1.84,1.84,0,0,1,1.958,2.1V16.3H107.5V12.921c0-.909-.4-1.361-1.221-1.361a1.3,1.3,0,0,0-1.351,1.434V16.3h-1.116Zm11.113-1.408v1.434h1.226v.94h-1.226v2.909c0,.593.244.852.8.852a3.728,3.728,0,0,0,.426-.026v.93a3.662,3.662,0,0,1-.607.057c-1.241,0-1.736-.437-1.736-1.527V11.612h-.9v-.94h.9V9.237Zm2.751-.8h1.107v3.118h.088a1.741,1.741,0,0,1,1.725-1.013,1.864,1.864,0,0,1,1.948,2.109V16.3h-1.118V12.926c0-.9-.421-1.361-1.21-1.361A1.322,1.322,0,0,0,118.8,13v3.3h-1.116Zm11.378,6.338a2.3,2.3,0,0,1-2.451,1.637,2.57,2.57,0,0,1-2.613-2.92,2.609,2.609,0,0,1,2.608-2.956c1.574,0,2.524,1.075,2.524,2.852v.39H125.13v.063a1.5,1.5,0,0,0,1.507,1.621,1.356,1.356,0,0,0,1.346-.686Zm-3.927-1.823h2.857a1.365,1.365,0,0,0-1.392-1.465,1.447,1.447,0,0,0-1.465,1.465Z" transform="translate(12.027 0.689)" fill="#fff"/>
  </g>
</svg>
