<svg xmlns="http://www.w3.org/2000/svg" width="27.685" height="34" viewBox="0 0 27.685 34">
  <path id="Icon_metro-apple" data-name="Icon metro-apple" d="M28.558,19.994a7.692,7.692,0,0,1,3.67-6.473,7.94,7.94,0,0,0-6.217-3.369c-2.648-.268-5.166,1.559-6.51,1.559s-3.414-1.519-5.61-1.479a8.318,8.318,0,0,0-7.033,4.263c-3,5.2-.768,12.911,2.155,17.13,1.428,2.065,3.131,4.385,5.366,4.3,2.153-.086,2.967-1.393,5.57-1.393s3.335,1.393,5.613,1.35c2.317-.043,3.785-2.105,5.2-4.177a18.741,18.741,0,0,0,2.355-4.835,7.509,7.509,0,0,1-4.562-6.877ZM24.277,7.357a7.493,7.493,0,0,0,1.769-5.429A7.622,7.622,0,0,0,21.039,4.5a7.128,7.128,0,0,0-1.805,5.261A6.306,6.306,0,0,0,24.277,7.357Z" transform="translate(-5.435 -1.928)" fill="#fff"/>
</svg>
