<svg xmlns="http://www.w3.org/2000/svg" width="44.966" height="44.967" viewBox="0 0 44.966 44.967">
  <g id="deliveroo" transform="translate(-156 -1049)">
    <g id="uber-eats-seeklogo.com-1" transform="translate(-194.2 698.9)">
      <path id="Path_305" data-name="Path 305" d="M354.075,350.1h37.217a3.885,3.885,0,0,1,3.874,3.875v37.217a3.885,3.885,0,0,1-3.874,3.875H354.075a3.885,3.885,0,0,1-3.875-3.875V353.975a3.88,3.88,0,0,1,3.875-3.875Z" fill="#35b8b2" fill-rule="evenodd"/>
    </g>
    <g id="deliveroo-seeklogo" transform="translate(132.4 1042.3)">
      <path id="Path_284" data-name="Path 284" d="M209.68,12.7h0l-1.022,10.97-1.743-9.247-5.471,1.312,1.743,9.247L195.3,26.87l1.4,7.387,13.866,3.321,3.172-8.025,1.508-16.189ZM205.3,28.613h0a.922.922,0,0,1-1.067.117c-.4-.148-.58-.7-.428-1.357.114-.49.645-.563.911-.57a.592.592,0,0,1,.293.069,1.025,1.025,0,0,1,.573.614,1.182,1.182,0,0,1-.282,1.127Zm4.014.507h0c-.211.407-.756.459-1.291.166-.362-.2-.359-.708-.318-1.018a1.035,1.035,0,0,1,.176-.463.881.881,0,0,1,.594-.431,1.014,1.014,0,0,1,.949.563A1.245,1.245,0,0,1,209.314,29.12Z" transform="translate(-159.98)" fill="#fff"/>
      <path id="Path_285" data-name="Path 285" d="M634.316,847.6a1.338,1.338,0,0,0-1.17.639l-.117-.542H631.9l.183.839v3.452h1.1v-2.734a.853.853,0,0,1,.791-.456h0a1.053,1.053,0,0,1,.618.19l.521-1.174a1.516,1.516,0,0,0-.8-.214Z" transform="translate(-581.51 -806.081)" fill="#fff"/>
      <path id="Path_286" data-name="Path 286" d="M157.3,977.1Z" transform="translate(-123.292 -931.111)" fill="#fff"/>
      <path id="Path_287" data-name="Path 287" d="M713.471,847.8a2.238,2.238,0,0,0,0,4.474h0a2.238,2.238,0,0,0,0-4.474Zm0,3.317h0a1.081,1.081,0,1,1,1.1-1.08,1.043,1.043,0,0,1-1.1,1.08Z" transform="translate(-658.169 -806.274)" fill="#fff"/>
      <path id="Path_288" data-name="Path 288" d="M843.471,847.8a2.238,2.238,0,1,0,2.168,2.237h0a2.116,2.116,0,0,0-2.168-2.237Zm0,3.317a1.081,1.081,0,1,1,1.1-1.08,1.043,1.043,0,0,1-1.1,1.08Z" transform="translate(-783.682 -806.274)" fill="#fff"/>
      <path id="Path_289" data-name="Path 289" d="M33.963,795.3h-1.1v2.42a1.7,1.7,0,0,0-1.319-.608,2.258,2.258,0,0,0,0,4.474,1.71,1.71,0,0,0,1.346-.632L33,801.5H34.15l-.19-.891Zm-2.2,5.129a1.081,1.081,0,1,1,1.1-1.08,1.043,1.043,0,0,1-1.095,1.08Z" transform="translate(0 -755.586)" fill="#fff"/>
      <path id="Path_290" data-name="Path 290" d="M389.519,853.976l-.842-3.476H387.5l1.146,4.291h1.764l1.146-4.291h-1.194Z" transform="translate(-345.546 -808.881)" fill="#fff"/>
      <path id="Path_291" data-name="Path 291" d="M505.044,847.8a2.3,2.3,0,0,0-1.508,3.878,2.121,2.121,0,0,0,1.656.6h0a3.172,3.172,0,0,0,1.716-.49l-.421-.949a2.768,2.768,0,0,1-1.277.331,1.144,1.144,0,0,1-1.156-.639h3.086a2.3,2.3,0,0,0,.048-.507,2.094,2.094,0,0,0-2.144-2.22Zm-1.056,1.847a.982.982,0,0,1,1.056-.756.97.97,0,0,1,1.056.756Z" transform="translate(-456.963 -806.274)" fill="#fff"/>
      <path id="Path_292" data-name="Path 292" d="M168.544,847.5a2.238,2.238,0,0,0,.148,4.474,3.173,3.173,0,0,0,1.716-.49l-.421-.949a2.768,2.768,0,0,1-1.277.331,1.144,1.144,0,0,1-1.156-.639h3.086a2.3,2.3,0,0,0,.048-.507,2.094,2.094,0,0,0-2.144-2.22Zm-1.077,1.857a.982.982,0,0,1,1.056-.756h0a.972.972,0,0,1,1.056.756Z" transform="translate(-132.078 -805.984)" fill="#fff"/>
      <path id="Path_293" data-name="Path 293" d="M346.094,792.9a.7.7,0,0,0,0,1.4h0a.7.7,0,0,0,0-1.4Z" transform="translate(-304.899 -753.269)" fill="#fff"/>
      <rect id="Rectangle_156" data-name="Rectangle 156" width="1.098" height="4.291" transform="translate(40.642 41.619)" fill="#fff"/>
      <path id="Path_294" data-name="Path 294" d="M300,801.5h1.1v-6.2H300Z" transform="translate(-261.066 -755.586)" fill="#fff"/>
    </g>
  </g>
</svg>
