<svg xmlns="http://www.w3.org/2000/svg" width="200" height="70" viewBox="0 0 200 70">
  <g id="Group_346" data-name="Group 346" transform="translate(-427 -2296)">
    <g id="Rectangle_197" data-name="Rectangle 197" transform="translate(427 2296)" fill="#fff" stroke="#707070" stroke-width="1">
      <rect width="200" height="70" rx="16" stroke="none"/>
      <rect x="0.5" y="0.5" width="199" height="69" rx="15.5" fill="none"/>
    </g>
    <g id="Group_345" data-name="Group 345" transform="translate(-3.846)">
      <path id="Icon_awesome-apple" data-name="Icon awesome-apple" d="M22.409,18.893a6.564,6.564,0,0,1,3.516-5.962,7.555,7.555,0,0,0-5.955-3.136c-2.5-.2-5.224,1.455-6.223,1.455-1.055,0-3.473-1.385-5.372-1.385C4.451,9.928.281,12.994.281,19.23A17.525,17.525,0,0,0,1.294,24.94c.9,2.58,4.148,8.909,7.538,8.8,1.772-.042,3.023-1.259,5.33-1.259,2.236,0,3.4,1.259,5.372,1.259,3.417-.049,6.356-5.8,7.214-8.388a6.97,6.97,0,0,1-4.338-6.462ZM18.429,7.348a6.622,6.622,0,0,0,1.688-5.1A7.456,7.456,0,0,0,15.342,4.7a6.726,6.726,0,0,0-1.8,5.055,5.905,5.905,0,0,0,4.887-2.412Z" transform="translate(454 2312.75)" fill="#10106a"/>
      <text id="Download_For" data-name="Download For" transform="translate(503 2322)" fill="#252525" font-size="16" font-family="Raleway-Regular, Raleway"><tspan x="0" y="0">Download For</tspan></text>
      <text id="iOS" transform="translate(503 2349)" fill="#252525" font-size="26" font-family="Raleway-SemiBold, Raleway" font-weight="600" letter-spacing="0.03em"><tspan x="0" y="0">iOS</tspan></text>
    </g>
  </g>
</svg>
