<svg xmlns="http://www.w3.org/2000/svg" width="44.966" height="44.967" viewBox="0 0 44.966 44.967">
  <g id="justeats" transform="translate(-105 -1049)">
    <g id="uber-eats-seeklogo.com-1" transform="translate(-245.2 698.9)">
      <path id="Path_305" data-name="Path 305" d="M354.075,350.1h37.217a3.885,3.885,0,0,1,3.874,3.875v37.217a3.885,3.885,0,0,1-3.874,3.875H354.075a3.885,3.885,0,0,1-3.875-3.875V353.975a3.88,3.88,0,0,1,3.875-3.875Z" fill="#ff8000" fill-rule="evenodd"/>
    </g>
    <g id="just-eat-seeklogo" transform="translate(50.5 869.2)">
      <g id="Group_301" data-name="Group 301" transform="translate(65.608 185.8)">
        <path id="Path_295" data-name="Path 295" d="M156.269,197.066c-.75-1.135-1.724-2.487-2.894-3.924a58.317,58.317,0,0,0-.834-5.822.567.567,0,0,0-.469-.448c-.841-.133-1.632-.2-2.256-.252h-.035a.565.565,0,0,0-.568.568v1.576a34.1,34.1,0,0,0-3.741-2.8,1.066,1.066,0,0,0-1.149,0,31.616,31.616,0,0,0-6.229,5.206,50.5,50.5,0,0,0-4.582,5.878.7.7,0,0,0-.112.378.691.691,0,0,0,.617.687c.652.07,1.387.14,2.193.21a97.827,97.827,0,0,0,.687,10,.786.786,0,0,0,.729.645c.154,0,3.706-.217,7.266-.217s7.09.217,7.266.217a.756.756,0,0,0,.729-.645,99.581,99.581,0,0,0,.687-10c.806-.07,1.541-.14,2.193-.21a.686.686,0,0,0,.617-.687.714.714,0,0,0-.115-.36Z" transform="translate(-133.4 -185.8)" fill="#fff" fill-rule="evenodd"/>
        <path id="Path_296" data-name="Path 296" d="M314.308,309.928c.343.042.834.1,1.492.147,0,0-.154,1.857-.406,3.91.736.021,1.422.042,2.025.07a59.377,59.377,0,0,0,.5-7.833c0-2.824-.07-5.136-.14-6.642a.716.716,0,0,0-.715-.68.743.743,0,0,0-.6.308,15.394,15.394,0,0,0-2.866,8.478c0,.518.035,1.142.07,1.576A.719.719,0,0,0,314.308,309.928Z" transform="translate(-300.975 -290.976)" fill="#ff8000"/>
        <path id="Path_297" data-name="Path 297" d="M215.4,320.521c.035,1.541.189,3.286.3,4.386.624-.021,1.317-.042,2.032-.056-.1-1.3-.224-3.2-.294-4.337.9-.378,1.3-1.331,1.3-3.041,0-1.359.119-4.505.189-6.467a.4.4,0,0,0-.406-.406.411.411,0,0,0-.406.406c-.056,1.471-.14,3.594-.168,5.143a.582.582,0,0,1-.575.574.573.573,0,0,1-.575-.574c.035-1.808.126-3.8.189-5.143a.4.4,0,0,0-.406-.406.411.411,0,0,0-.406.406c-.063,1.345-.154,3.328-.189,5.136a.585.585,0,0,1-.582.582.576.576,0,0,1-.582-.582c.042-1.8.126-3.8.189-5.136a.4.4,0,0,0-.406-.406.411.411,0,0,0-.406.406c-.084,1.78-.21,4.694-.21,6.817a2.728,2.728,0,0,0,1.412,2.7Z" transform="translate(-208.35 -301.856)" fill="#ff8000"/>
      </g>
      <g id="Group_302" data-name="Group 302" transform="translate(60.5 212.277)">
        <path id="Path_298" data-name="Path 298" d="M341.3,565.449c.483,0,.483-.007.582-.575s.1-.574-.343-.574H339.1c-.855,0-.841,0-.988.869l-.624,3.636c-.154.939-.147.939.736.939h2.382c.5,0,.483,0,.589-.568.105-.589.105-.589-.35-.589h-2.06l.168-1.051h1.71c.462,0,.462,0,.539-.54s.091-.553-.539-.553h-1.527l.168-.995Z" transform="translate(-318.013 -564.258)" fill="#fff"/>
        <path id="Path_299" data-name="Path 299" d="M253.382,564.2h-3.419c-.483,0-.483,0-.589.574s-.091.575.336.575h1.114l-.624,3.594c-.112.7-.1.7.525.7.575,0,.61,0,.694-.5l.652-3.8h1.065c.476,0,.476,0,.582-.575s.1-.574-.336-.574" transform="translate(-236.09 -564.165)" fill="#fff"/>
        <path id="Path_300" data-name="Path 300" d="M115.94,564.2c-.6,0-.61.007-.694.5l-.448,2.613c-.126.757-.329,1.205-1.065,1.205s-.988-.441-.869-1.121l.427-2.5c.112-.7.091-.694-.525-.694s-.624-.007-.7.49l-.448,2.627a1.9,1.9,0,0,0,1.969,2.41c1.471,0,2.207-.652,2.459-2.228l.448-2.6c.105-.7.077-.7-.553-.7" transform="translate(-107.995 -564.165)" fill="#fff"/>
        <path id="Path_301" data-name="Path 301" d="M63.394,564.2H61.9c-.49,0-.49,0-.589.568s-.091.582.343.582h.89l-.49,2.873a1.547,1.547,0,0,1-1.268,1.345c-.224.063-.287.154-.287.252a1.333,1.333,0,0,0,.133.455c.133.343.224.413.343.413a2.094,2.094,0,0,0,.42-.091,2.837,2.837,0,0,0,1.927-2.48l.561-3.237c.112-.666.112-.68-.49-.68" transform="translate(-60.5 -564.165)" fill="#fff"/>
        <path id="Path_302" data-name="Path 302" d="M184,568.03c.483-.028.736-.238.736-.469,0-.28-.35-.385-.813-.518-.918-.28-1.731-.6-1.731-1.576,0-1.142.939-1.766,2.123-1.766.5,0,1.065.028,1.436.063.329.028.392.147.308.645s-.2.547-.476.526c-.343-.028-.785-.063-1.3-.056-.61.007-.785.217-.785.427,0,.259.238.406.806.553,1.051.308,1.738.722,1.738,1.625,0,1.065-.792,1.682-2.053,1.731a9.588,9.588,0,0,1-1.808-.1c-.406-.056-.42-.063-.315-.645.091-.526.1-.568.476-.519a8.433,8.433,0,0,0,1.661.077" transform="translate(-173.311 -563.7)" fill="#fff"/>
        <path id="Path_303" data-name="Path 303" d="M474.882,564.2h-3.419c-.483,0-.483,0-.589.574s-.091.575.336.575h1.114l-.624,3.594c-.112.7-.105.7.525.7.575,0,.61,0,.694-.5l.652-3.8h1.065c.476,0,.476,0,.582-.575s.1-.574-.336-.574" transform="translate(-442.071 -564.165)" fill="#fff"/>
        <path id="Path_304" data-name="Path 304" d="M400.774,564.88c-.126-.68-.126-.68-1.086-.68-.9,0-.89,0-1.163.553l-2.046,4.239c-.294.61-.245.652.511.652.589,0,.574,0,.827-.539l.329-.722h1.969l.105.722c.077.539.105.539.687.539.659,0,.722-.049.6-.7l-.729-4.064Zm-2.137,2.4.792-1.731c.07-.147.07-.147.154-.147.105,0,.105,0,.126.154l.238,1.717-1.31.007h0" transform="translate(-372.784 -564.165)" fill="#fff"/>
      </g>
    </g>
  </g>
</svg>
