<svg id="Google_Play-Badge-Logo.wine" xmlns="http://www.w3.org/2000/svg" xmlns:xlink="http://www.w3.org/1999/xlink" width="170.044" height="50.076" viewBox="0 0 170.044 50.076">
  <defs>
    <linearGradient id="linear-gradient" x1="0.849" y1="0.31" x2="0.361" y2="0.799" gradientUnits="objectBoundingBox">
      <stop offset="0" stop-color="#00a0ff"/>
      <stop offset="0.007" stop-color="#00a1ff"/>
      <stop offset="0.26" stop-color="#00beff"/>
      <stop offset="0.512" stop-color="#00d2ff"/>
      <stop offset="0.76" stop-color="#00dfff"/>
      <stop offset="1" stop-color="#00e3ff"/>
    </linearGradient>
    <linearGradient id="linear-gradient-2" x1="0.97" y1="0.436" x2="-1.177" y2="0.436" gradientUnits="objectBoundingBox">
      <stop offset="0" stop-color="#ffe000"/>
      <stop offset="0.409" stop-color="#ffbd00"/>
      <stop offset="0.775" stop-color="orange"/>
      <stop offset="1" stop-color="#ff9c00"/>
    </linearGradient>
    <linearGradient id="linear-gradient-3" x1="0.761" y1="0.213" x2="-0.443" y2="1.411" gradientUnits="objectBoundingBox">
      <stop offset="0" stop-color="#ff3a44"/>
      <stop offset="1" stop-color="#c31162"/>
    </linearGradient>
    <linearGradient id="linear-gradient-4" x1="-0.17" y1="-0.275" x2="0.367" y2="0.26" gradientUnits="objectBoundingBox">
      <stop offset="0" stop-color="#32a071"/>
      <stop offset="0.068" stop-color="#2da771"/>
      <stop offset="0.476" stop-color="#15cf74"/>
      <stop offset="0.801" stop-color="#06e775"/>
      <stop offset="1" stop-color="#00f076"/>
    </linearGradient>
    <linearGradient id="linear-gradient-5" x1="0.624" y1="0.038" x2="-0.364" y2="1.027" gradientUnits="objectBoundingBox">
      <stop offset="0" stop-color="#cc2e36"/>
      <stop offset="1" stop-color="#9c0e4e"/>
    </linearGradient>
    <linearGradient id="linear-gradient-6" x1="5.233" y1="-7.998" x2="-1.121" y2="-1.634" gradientUnits="objectBoundingBox">
      <stop offset="0" stop-color="#008de0"/>
      <stop offset="0.007" stop-color="#008de0"/>
      <stop offset="0.26" stop-color="#00a7e0"/>
      <stop offset="0.512" stop-color="#00b8e0"/>
      <stop offset="0.76" stop-color="#00c4e0"/>
      <stop offset="1" stop-color="#00c7e0"/>
    </linearGradient>
    <linearGradient id="linear-gradient-7" x1="0.943" y1="-0.195" x2="-2.414" y2="-0.195" gradientUnits="objectBoundingBox">
      <stop offset="0" stop-color="#e0c500"/>
      <stop offset="0.409" stop-color="#e0a600"/>
      <stop offset="0.775" stop-color="#e09100"/>
      <stop offset="1" stop-color="#e08900"/>
    </linearGradient>
    <linearGradient id="linear-gradient-8" x1="0.944" y1="0.999" x2="-2.414" y2="0.999" gradientUnits="objectBoundingBox">
      <stop offset="0" stop-color="#ffe840"/>
      <stop offset="0.409" stop-color="#ffce40"/>
      <stop offset="0.775" stop-color="#ffbc40"/>
      <stop offset="1" stop-color="#ffb540"/>
    </linearGradient>
    <linearGradient id="linear-gradient-9" x1="5.219" y1="0.865" x2="-1.113" y2="6.933" gradientUnits="objectBoundingBox">
      <stop offset="0" stop-color="#40b8ff"/>
      <stop offset="0.007" stop-color="#40b9ff"/>
      <stop offset="0.26" stop-color="#40ceff"/>
      <stop offset="0.512" stop-color="#40ddff"/>
      <stop offset="0.76" stop-color="#40e7ff"/>
      <stop offset="1" stop-color="#40eaff"/>
    </linearGradient>
    <linearGradient id="linear-gradient-10" x1="-0.137" y1="-0.184" x2="0.304" y2="0.257" gradientUnits="objectBoundingBox">
      <stop offset="0" stop-color="#65b895"/>
      <stop offset="0.068" stop-color="#62bd95"/>
      <stop offset="0.476" stop-color="#50db97"/>
      <stop offset="0.801" stop-color="#44ed98"/>
      <stop offset="1" stop-color="#40f498"/>
    </linearGradient>
  </defs>
  <path id="Path_404" data-name="Path 404" d="M163.7,50H6.3A6.292,6.292,0,0,1,0,43.75V6.25A6.292,6.292,0,0,1,6.3,0H163.7A6.292,6.292,0,0,1,170,6.25v37.5A6.292,6.292,0,0,1,163.7,50" transform="translate(0.044 0.076)"/>
  <path id="Path_405" data-name="Path 405" d="M163.7,0H6.3A6.292,6.292,0,0,0,0,6.25v37.5A6.292,6.292,0,0,0,6.3,50H163.7a6.292,6.292,0,0,0,6.3-6.25V6.25A6.292,6.292,0,0,0,163.7,0m0,1a5.276,5.276,0,0,1,5.289,5.25v37.5A5.276,5.276,0,0,1,163.7,49H6.3A5.276,5.276,0,0,1,1.007,43.75V6.25A5.276,5.276,0,0,1,6.3,1H163.7" fill="#a6a6a6"/>
  <g id="Group_382" data-name="Group 382" transform="translate(0.554 -0.412)">
    <path id="Path_406" data-name="Path 406" d="M926.223,157a3.4,3.4,0,0,1-.933,2.512,3.641,3.641,0,0,1-2.761,1.114,3.932,3.932,0,1,1,0-7.864,3.87,3.87,0,0,1,1.543.316,3.1,3.1,0,0,1,1.175.841l-.66.662a2.535,2.535,0,0,0-2.057-.893,3.006,3.006,0,1,0,2.1,5.172,2.369,2.369,0,0,0,.63-1.525h-2.729v-.9h3.642a3.219,3.219,0,0,1,.052.568" transform="translate(-866.833 -144.151)" fill="#fff"/>
    <path id="Path_407" data-name="Path 407" d="M924.128,154.9H924a3.274,3.274,0,0,1-.9,2.424h0a3.515,3.515,0,0,1-2.67,1.075,3.806,3.806,0,1,1,0-7.613,3.748,3.748,0,0,1,1.493.305,2.978,2.978,0,0,1,1.129.807l.1-.081-.089-.089-.661.662.089.088.1-.08a2.664,2.664,0,0,0-2.154-.938,3.033,3.033,0,0,0-3.043,3.132,3.033,3.033,0,0,0,3.043,3.132,2.971,2.971,0,0,0,2.188-.877,2.5,2.5,0,0,0,.666-1.6l.012-.136h-2.74v-.653h3.516v-.125l-.123.022a3.075,3.075,0,0,1,.05.546h.251a3.329,3.329,0,0,0-.054-.59l-.019-.1h-3.871v1.155h2.854v-.125l-.125-.011a2.248,2.248,0,0,1-.594,1.447,2.864,2.864,0,0,1-3.976,0,3.029,3.029,0,0,1,0-4.161,2.726,2.726,0,0,1,1.965-.8,2.41,2.41,0,0,1,1.962.848l.088.1.757-.759.081-.081-.074-.088a3.218,3.218,0,0,0-1.222-.876,4,4,0,0,0-1.592-.326,4.057,4.057,0,1,0,0,8.115,3.77,3.77,0,0,0,2.851-1.153l-.091-.087.089.089a3.527,3.527,0,0,0,.97-2.6h-.125m5.773-3.144h-3.422v2.387h3.086v.9h-3.086v2.387H929.9v.925h-4.387v-7.527H929.9v.925" transform="translate(-864.738 -142.052)" fill="#fff"/>
    <path id="Path_408" data-name="Path 408" d="M1080.259,154.58v-.125h-3.547v2.637h3.086v.653h-3.086v2.637h3.422v.674H1076v-7.276h4.136v.8h.125v0h.125v-1.05h-4.637v7.778h4.637v-1.176h-3.422V158h3.086v-1.155h-3.086v-2.136h3.422v-.125h-.125m4.072,6.6h-.966v-6.6h-2.1v-.925h5.164v.925h-2.1v6.6" transform="translate(-1015.097 -144.874)" fill="#fff"/>
    <path id="Path_409" data-name="Path 409" d="M1174.613,161.182v-.126h-.841v-6.6h-2.1v-.674h4.914v.674h-2.1v6.728h.125v0h.125v-6.477h2.1V153.53h-5.415v1.176h2.1v6.6h1.217v-.125h-.125m5.835,0v-7.527h.965v7.527h-.965" transform="translate(-1105.379 -144.874)" fill="#fff"/>
    <path id="Path_410" data-name="Path 410" d="M1329.414,161.182h.125v-7.4h.715v7.276h-.84v.125h0v.125h1.091V153.53h-1.216v7.778h.125v-.125m5.248,0h-.966v-6.6h-2.1v-.925h5.164v.925h-2.1v6.6" transform="translate(-1254.345 -144.874)" fill="#fff"/>
    <path id="Path_411" data-name="Path 411" d="M1371.205,160.46v-.125h-.841v-6.6h-2.1v-.674h4.913v.674h-2.1v6.728h.125v0h.125v-6.477h2.1v-1.176h-5.414v1.176h2.1v6.6h1.217v-.125h-.125m7.078-1.6a2.887,2.887,0,0,0,4.083,0,3.211,3.211,0,0,0,0-4.321,2.886,2.886,0,0,0-4.083,0,3.215,3.215,0,0,0,0,4.321Zm4.8.63a3.9,3.9,0,0,1-5.51,0,4.071,4.071,0,0,1,0-5.581,3.884,3.884,0,0,1,5.505,0,4.058,4.058,0,0,1,0,5.577Z" transform="translate(-1290.887 -144.151)" fill="#fff"/>
    <path id="Path_412" data-name="Path 412" d="M1517.573,156.757l-.089.088a3.012,3.012,0,0,0,4.261,0,3.336,3.336,0,0,0,0-4.5,3.012,3.012,0,0,0-4.261,0,3.341,3.341,0,0,0,0,4.5l.089-.088.089-.088a3.09,3.09,0,0,1,0-4.145,2.761,2.761,0,0,1,3.9,0,3.087,3.087,0,0,1,0,4.145,2.761,2.761,0,0,1-3.9,0Zm4.8.63-.089-.087a3.773,3.773,0,0,1-5.331,0l0,0,0,0a3.947,3.947,0,0,1,0-5.407,3.76,3.76,0,0,1,5.326.005,3.933,3.933,0,0,1,0,5.4l.089.087.09.087a4.183,4.183,0,0,0-.005-5.751,4.008,4.008,0,0,0-5.685,0h0a4.2,4.2,0,0,0,0,5.757l0,0,0,0a4.022,4.022,0,0,0,5.69,0Zm2.462.973v-7.527h1.175l3.652,5.855h.042l-.042-1.451v-4.4h.966v7.527h-1.008l-3.821-6.139h-.042l.042,1.451v4.688h-.965" transform="translate(-1430.178 -142.052)" fill="#fff"/>
    <path id="Path_413" data-name="Path 413" d="M954.988,161.182h.125v-7.4h.98l3.652,5.855h.24l-.045-1.578v-4.278h.716v7.276h-.813l-3.821-6.139h-.24l.045,1.579v4.561h-.839v.125h0v.125h1.09v-4.816l-.042-1.452-.125,0v.125h.042v-.125l-.106.067,3.858,6.2h1.2V153.53h-1.217v4.532l.042,1.452.125,0v-.125h-.042v.125l.106-.067-3.689-5.914h-1.37v7.778h.125v-.125m39.278,21.326H996.6V166.826h-2.337Zm21.05-10.033-2.679,6.8h-.08l-2.78-6.8h-2.517l4.169,9.5-2.377,5.286h2.439l6.425-14.789Zm-13.254,8.252c-.766,0-1.834-.383-1.834-1.332,0-1.21,1.33-1.674,2.477-1.674a4.153,4.153,0,0,1,2.135.525A2.835,2.835,0,0,1,1002.063,180.727Zm.282-8.6a4.386,4.386,0,0,0-4.169,2.4l2.074.867a2.214,2.214,0,0,1,2.135-1.15,2.251,2.251,0,0,1,2.457,2.018v.161a5.162,5.162,0,0,0-2.437-.605c-2.236,0-4.513,1.23-4.513,3.531a3.62,3.62,0,0,0,3.888,3.45,3.3,3.3,0,0,0,2.982-1.533h.08v1.21h2.256V176.47C1007.1,173.686,1005.024,172.132,1002.345,172.132ZM987.9,174.384h-3.324v-5.376H987.9a2.688,2.688,0,1,1,0,5.376Zm-.06-7.558h-5.6v15.683h2.336v-5.942h3.264a4.877,4.877,0,1,0,0-9.741Zm-30.536,13.9a3.246,3.246,0,0,1,0-6.467,3.26,3.26,0,0,1,0,6.467Zm2.683-7.377h-.081a3.689,3.689,0,0,0-2.8-1.192,5.341,5.341,0,0,0,0,10.671,3.63,3.63,0,0,0,2.8-1.212h.081v.768c0,2.042-1.089,3.133-2.845,3.133a2.949,2.949,0,0,1-2.684-1.9l-2.038.849a5.077,5.077,0,0,0,4.722,3.153c2.744,0,5.065-1.617,5.065-5.558v-9.58h-2.22Zm3.834,9.155h2.341V166.826h-2.341Zm5.791-5.174a2.924,2.924,0,0,1,2.784-3.112,2.06,2.06,0,0,1,1.977,1.132Zm7.264-1.778a4.952,4.952,0,0,0-4.56-3.4,5.067,5.067,0,0,0-5.024,5.335,5.217,5.217,0,0,0,5.286,5.335,5.3,5.3,0,0,0,4.44-2.365l-1.816-1.213a3.041,3.041,0,0,1-2.624,1.476A2.71,2.71,0,0,1,970,179.114l7.123-2.951ZM920.131,173.8v2.263h5.407a4.727,4.727,0,0,1-1.231,2.85,5.53,5.53,0,0,1-4.177,1.657,6.023,6.023,0,0,1,0-12.045,5.758,5.758,0,0,1,4.076,1.617l1.594-1.6a7.875,7.875,0,0,0-5.67-2.284,8.287,8.287,0,1,0,0,16.572,7.328,7.328,0,0,0,7.728-7.619,7.36,7.36,0,0,0-.121-1.415Zm13.876,6.932a3.242,3.242,0,1,1,3.006-3.234A3.085,3.085,0,0,1,934.007,180.73Zm0-8.569a5.335,5.335,0,1,0,5.347,5.335A5.255,5.255,0,0,0,934.007,172.161Zm11.664,8.569a3.242,3.242,0,1,1,3.006-3.234,3.085,3.085,0,0,1-3.006,3.234Zm0-8.569a5.335,5.335,0,1,0,5.347,5.335,5.254,5.254,0,0,0-5.347-5.335Z" transform="translate(-860.333 -144.874)" fill="#fff"/>
    <path id="Path_414" data-name="Path 414" d="M222.212,162.541a2.425,2.425,0,0,0-.671,1.854v27.378a2.515,2.515,0,0,0,.58,1.763l.093.089h0a1.609,1.609,0,0,0,1.107.408,2.881,2.881,0,0,0,1.4-.421l18.18-10.346,6.245-3.554a2.338,2.338,0,0,0,1.313-1.626v0a2.337,2.337,0,0,0-1.313-1.627L242.9,172.9l-18.179-10.346a2.887,2.887,0,0,0-1.406-.422,1.611,1.611,0,0,0-1.106.407Z" transform="translate(-209.051 -152.993)" fill="#00c1ff"/>
    <path id="Path_415" data-name="Path 415" d="M.788-520.482l-.093-.089a2.515,2.515,0,0,1-.58-1.763v-27.378a2.425,2.425,0,0,1,.671-1.854L16.3-536.024.788-520.482" transform="translate(12.375 561.114)" fill="url(#linear-gradient)"/>
    <path id="Path_416" data-name="Path 416" d="M5.859-174.2.686-179.385l5.173-5.182,6.245,3.554a2.337,2.337,0,0,1,1.313,1.627v0a2.338,2.338,0,0,1-1.313,1.626L5.859-174.2" transform="translate(27.993 204.476)" fill="url(#linear-gradient-2)"/>
    <path id="Path_417" data-name="Path 417" d="M1.547-267.067a1.609,1.609,0,0,1-1.107-.408h0l15.516-15.541,5.173,5.183L2.95-267.488a2.881,2.881,0,0,1-1.4.421" transform="translate(12.723 308.108)" fill="url(#linear-gradient-3)"/>
    <path id="Path_418" data-name="Path 418" d="M15.708-267.655.19-283.2A1.611,1.611,0,0,1,1.3-283.6a2.886,2.886,0,0,1,1.406.422l18.179,10.346-5.173,5.182" transform="translate(12.972 292.746)" fill="url(#linear-gradient-4)"/>
    <path id="Path_419" data-name="Path 419" d="M1.99-184.143a1.613,1.613,0,0,1-1.107-.408h0l0,0L.8-184.633l-.008-.008.093-.093a1.609,1.609,0,0,0,1.107.408,2.881,2.881,0,0,0,1.4-.421l18.18-10.346.116.117-.118.067L3.393-184.565a2.99,2.99,0,0,1-1.288.419l-.114,0" transform="translate(12.28 225.367)" fill="url(#linear-gradient-5)"/>
    <path id="Path_420" data-name="Path 420" d="M.695-33.36a2.514,2.514,0,0,1-.58-1.763v-.183a2.515,2.515,0,0,0,.58,1.763l.093.089-.093.094" transform="translate(12.375 74.085)" fill="url(#linear-gradient-6)"/>
    <path id="Path_421" data-name="Path 421" d="M.758-88.83l-.116-.117L6.887-92.5A2.338,2.338,0,0,0,8.2-94.127a1.555,1.555,0,0,1-.145.647,2.69,2.69,0,0,1-1.168,1.163L.758-88.83" transform="translate(33.211 119.219)" fill="url(#linear-gradient-7)"/>
    <path id="Path_422" data-name="Path 422" d="M8.191-89.386a2.337,2.337,0,0,0-1.313-1.627L.633-94.567l.116-.117h0L6.878-91.2a2.2,2.2,0,0,1,1.313,1.81" transform="translate(33.219 114.476)" fill="url(#linear-gradient-8)"/>
    <path id="Path_423" data-name="Path 423" d="M.115-32.812V-33c0-.069,0-.137.005-.2v0a.009.009,0,0,1,0,0v-.007a2.392,2.392,0,0,1,.574-1.539l.092.092a2.425,2.425,0,0,0-.671,1.854" transform="translate(12.375 44.214)" fill="url(#linear-gradient-9)"/>
    <path id="Path_424" data-name="Path 424" d="M21.571-183.952,3.392-194.3a2.886,2.886,0,0,0-1.406-.422,1.611,1.611,0,0,0-1.106.407L.789-194.4q.043-.045.089-.088l0,0a1.61,1.61,0,0,1,1.1-.408h.009a2.885,2.885,0,0,1,1.406.422l18.3,10.412h0l-.116.117" transform="translate(12.281 203.861)" fill="url(#linear-gradient-10)"/>
  </g>
</svg>
