<svg xmlns="http://www.w3.org/2000/svg" width="44.966" height="44.967" viewBox="0 0 44.966 44.967">
  <g id="uber-eats-seeklogo.com-1" transform="translate(-350.2 -350.1)">
    <path id="Path_305" data-name="Path 305" d="M354.075,350.1h37.217a3.885,3.885,0,0,1,3.874,3.875v37.217a3.885,3.885,0,0,1-3.874,3.875H354.075a3.885,3.885,0,0,1-3.875-3.875V353.975a3.88,3.88,0,0,1,3.875-3.875Z" fill-rule="evenodd"/>
    <path id="Path_306" data-name="Path 306" d="M486.042,508.311h-1.3v-6.348h1.3v.709a1.758,1.758,0,0,1,1.553-.777h.388v1.275h-.4c-1.089,0-1.545.574-1.545,1.621v3.52ZM461.908,499.6H463.3v5.318a2.139,2.139,0,1,0,4.263-.008V499.6h1.317v8.7h-1.317v-.785a3.423,3.423,0,0,1-2.229.962,3.469,3.469,0,0,1-3.436-3.748V499.6Zm9.37,8.694h-1.291v-8.686h1.291v3.123a3.462,3.462,0,0,1,2.38-.869,3.153,3.153,0,0,1,3.216,3.149,3.42,3.42,0,0,1-3.326,3.5,2.936,2.936,0,0,1-2.271-.979v.76Zm2.152-5.276a2.161,2.161,0,1,0,2.161,2.161,2.161,2.161,0,0,0-2.161-2.161Zm10.45,2.566h-5.124a2.243,2.243,0,0,0,2.127,1.781,2.4,2.4,0,0,0,1.823-.979c.287.228.582.456.869.675-.912,1.629-3.545,1.739-4.921.667a3.112,3.112,0,0,1-1.241-2.676,3.322,3.322,0,0,1,3.444-3.25c1.629.017,3.174,1.182,3.022,3.782Zm-1.308-1.021a1.931,1.931,0,0,0-3.8,0Z" transform="translate(-102.271 -136.88)" fill="#fff" fill-rule="evenodd"/>
    <path id="Path_307" data-name="Path 307" d="M464.18,635.826v-2.144h4.339v-1.469H464.18v-2.144h4.474V628.6H462.5v8.694h6.154v-1.469Zm24.167-2.912h-1.629a.9.9,0,0,0-.346-.549,1.841,1.841,0,0,0-.988-.388c-.574-.059-1.232.236-1.249.591-.008.219.219.456.869.641,1.08.321,2.465.177,3.225,1.165.886,1.156-.042,2.98-2.6,3.064-1.528.051-3.132-.625-3.343-2.254H483.9a1.573,1.573,0,0,0,.591.684c.557.346,2.22.414,2.321-.388a.342.342,0,0,0-.186-.338,4.062,4.062,0,0,0-1.292-.363c-2.034-.279-2.777-.945-2.921-1.781a1.685,1.685,0,0,1,.16-1.072,2.435,2.435,0,0,1,.464-.6,3.394,3.394,0,0,1,2.389-.76c1.258.042,2.862.734,2.921,2.347Zm-6.508,2.887v1.469h-1.79a1.623,1.623,0,0,1-1.722-1.773v-3.174H477.1v-1.452h1.224v-1.857h1.646v1.857h1.866v1.452H479.97V635.1c0,.608.211.7.793.7Zm-7.082-4.4v-.54h1.68v6.407h-1.68v-.6a3.36,3.36,0,1,1-1.967-5.977,3.147,3.147,0,0,1,1.967.71Zm-1.95.718a1.933,1.933,0,1,0,1.933,1.933,1.933,1.933,0,0,0-1.933-1.933Z" transform="translate(-102.821 -254.991)" fill="#7bc256" fill-rule="evenodd"/>
  </g>
</svg>
