<svg xmlns="http://www.w3.org/2000/svg" width="21.23" height="30" viewBox="0 0 21.23 30">
  <g id="map-pin-icon" transform="translate(0 0)">
    <path id="Path_8" data-name="Path 8" d="M6.789,23.576c1.079,1.719,2.246,3.8,3.4,5.825.427.747.813.859,1.326-.027,1.113-1.931,2.207-3.931,3.359-5.8,3.5-5.661,9.223-11.181,4.67-18.8C15.5-1.987,4.5-1.265,1.216,5.034c-3.769,7.219,2.117,13.039,5.574,18.542Z" fill="#d61a0c" fill-rule="evenodd"/>
    <rect id="Rectangle_230" data-name="Rectangle 230" width="1" height="12" transform="matrix(0.966, 0.259, -0.259, 0.966, 8.186, 5.075)" fill="#fff"/>
    <rect id="Rectangle_231" data-name="Rectangle 231" width="1" height="12" transform="matrix(0.966, 0.259, -0.259, 0.966, 12.186, 5.075)" fill="#fff"/>
    <rect id="Rectangle_232" data-name="Rectangle 232" width="1" height="12" transform="matrix(0.966, 0.259, -0.259, 0.966, 16.186, 5.075)" fill="#fff"/>
  </g>
</svg>
